<?xml version="1.0" encoding="UTF-8"?>
<svg width="21px" height="16px" viewBox="0 0 21 16" version="1.1" xmlns="http://www.w3.org/2000/svg" xmlns:xlink="http://www.w3.org/1999/xlink">
    <!-- Generator: Sketch 50.2 (55047) - http://www.bohemiancoding.com/sketch -->
    <title>Helmet 3</title>
    <desc>Created with Sketch.</desc>
    <defs>
        <path d="M0.21565652,13.4260052 C0.768770007,13.2543492 1.33141993,13.1971306 1.9036063,13.2543492 C2.76188585,13.3401772 10.0286527,16.4299836 11.2588534,15.9150159 C12.4890541,15.4000481 13.0326311,14.3415033 13.3473336,13.4260052 C13.6620361,12.510507 15.4072045,14.6116619 17.4098568,14.6028824 C18.7449583,14.5970295 19.5269464,14.2619557 19.7558209,13.5976611 L19.7558209,13.054084 C20.3280073,13.1685213 20.6141005,13.0445476 20.6141005,12.6821629 C20.6141005,12.1385858 20.4710539,10.622292 20.299398,10.622292 C20.1277421,10.622292 21.1004589,1.72479398 14.0625666,0.380156019 C9.37063837,-0.516269288 6.24268624,0.52320261 4.67871017,3.49857171 C4.07627056,3.4389258 3.72599015,3.54118909 3.62786893,3.8053616 C3.52974772,4.0695341 3.41653093,4.36389775 3.28821857,4.68845254 C2.30700641,4.57523575 1.71450523,4.61297468 1.51071501,4.80166933 C1.30692479,4.99036397 1.1446474,5.36397937 1.02388282,5.92251552 L1.17106465,6.01308895 L0.446477209,8.15288623 C0.325712636,8.01702609 0.216269741,8.15288623 0.118148526,8.56046667 C-0.0290332978,9.17183732 0.0615401321,9.39827089 0.61630239,9.73792125 C0.986143895,9.96435483 1.2503164,10.100215 1.4088199,10.1455017 L0.21565652,13.4260052 Z" id="path-1"></path>
    </defs>
    <g id="Team" stroke="none" stroke-width="1" fill="none" fill-rule="evenodd">
        <g id="My-Teams" transform="translate(-609.000000, -68.000000)">
            <g id="Helmet-3" transform="translate(609.000000, 68.000000)">
                <path d="M0.243780268,13.4224447 C1.24506104,14.212446 1.93860873,14.6074467 2.32442334,14.6074467 C2.90314525,14.6074467 3.93657724,14.1527366 4.03303089,13.9047129 C4.09733333,13.7393638 3.46579156,13.4454098 2.13840558,13.022851 L0.478024852,13.174421 L0.243780268,13.4224447 Z" id="Path" fill="#20222A"></path>
                <mask id="mask-2" fill="white">
                    <use xlink:href="#path-1"></use>
                </mask>
                <use id="Mask" fill="#D89907" xlink:href="#path-1"></use>
                <g id="Group" mask="url(#mask-2)" fill="#262831">
                    <g transform="translate(0.000000, 3.413333)">
                        <path d="M0.0370938702,5.77892973 C0.422908479,5.61358061 0.868432492,5.55846423 1.37366591,5.61358061 C1.68793488,5.6478645 3.40018286,5.79476185 5.89320847,6.55055894 C6.90312736,6.85673059 8.71737463,7.53190616 11.3359503,8.57608564 C5.83349907,7.12468783 2.75616826,6.39898892 2.10395785,6.39898892 C1.12564223,6.39898892 1.67310164,6.78735029 1.20506605,6.69527771 C0.89304232,6.633896 0.50371826,6.32844667 0.0370938702,5.77892973 Z" id="Path"></path>
                        <path d="M0.445941213,4.70623364 C1.58367184,4.69399998 2.6112995,4.79186928 3.52882419,4.99984154 C4.90511124,5.31179994 7.78613878,6.54128303 8.11644768,6.19262365 C8.44675657,5.84396426 9.14407534,4.11901783 8.90551891,3.86211092 C8.66696249,3.605204 4.02428753,2.06376251 2.72140246,2.06376251 C1.85281241,2.06376251 1.34511542,2.17998231 1.19831146,2.4124219 L0.445941213,4.70623364 Z" id="Path-24"></path>
                        <path d="M3.87748358,0.155311145 C6.43431907,0.436685385 8.08586352,0.730293288 8.83211694,1.03613485 C9.57837036,1.34197642 10.0004317,1.51936453 10.098301,1.56829918 C8.49569122,0.736410119 7.19280615,0.265414108 6.18964581,0.155311145 C5.18648548,0.0452081809 4.41576473,0.0452081809 3.87748358,0.155311145 Z" id="Path-25"></path>
                        <path d="M13.4000683,9.84927709 C13.905162,8.37539714 14.2073902,7.55565493 14.3067529,7.39005044 C14.4557969,7.14164371 14.7787257,7.66329784 15.0147121,7.66329784 C15.1720363,7.66329784 15.2962397,7.66329784 15.3873222,7.66329784 C15.2217177,7.90342435 15.0354126,7.98622659 14.828407,7.91170458 C14.5178986,7.79992155 14.4806376,7.68813852 14.3936952,7.79992155 C14.3067529,7.91170458 14.0335055,8.4532386 14.1080275,8.58613253 C14.1577088,8.67472848 14.2239506,8.75214735 14.3067529,8.81838915 C14.0997473,8.74386713 13.9962445,8.74386713 13.9962445,8.81838915 C13.9962445,8.93017218 13.6981564,9.55118901 13.8472004,9.76233473 C13.9962445,9.97348045 14.1452885,10.1722058 13.9962445,10.1722058 C13.8968818,10.1722058 13.6981564,10.0645629 13.4000683,9.84927709 Z" id="Path-26"></path>
                        <path d="M16.2326216,5.17900605 C16.077437,5.41695577 16.1239924,5.56696754 16.3722878,5.62904138 C16.6205831,5.69111522 16.7861134,5.69111522 16.8688785,5.62904138 C16.6723113,5.98079314 16.4602257,6.06873108 16.2326216,5.8928552 C16.0050176,5.71697932 16.0050176,5.4790296 16.2326216,5.17900605 Z" id="Path-27"></path>
                        <path d="M15.2016188,5.94255499 C15.6021343,6.36501655 15.9889335,6.57624732 16.3620165,6.57624732 C16.7350994,6.57624732 17.07252,6.33758398 17.3742782,5.86025729 C16.891465,6.28820535 16.5540444,6.46377379 16.3620165,6.3869626 C16.0739745,6.27174581 15.4320524,5.86025729 15.3168356,5.86025729 C15.2400244,5.86025729 15.2016188,5.88768986 15.2016188,5.94255499 Z" id="Path-28"></path>
                    </g>
                </g>
            </g>
        </g>
    </g>
</svg>