<?xml version="1.0" encoding="UTF-8"?>
<svg width="40px" height="40px" viewBox="0 0 40 40" version="1.1" xmlns="http://www.w3.org/2000/svg" xmlns:xlink="http://www.w3.org/1999/xlink">
    <g id="Color" stroke="none" stroke-width="1" fill="none" fill-rule="evenodd">
        <g id="Desktop-HD-Copy" transform="translate(-277.000000, -384.000000)" fill="#cfd1d8" fill-rule="nonzero">
            <g id="Login" transform="translate(277.000000, 292.000000)">
                <g id="login-btn" transform="translate(0.000000, 92.000000)">
                    <g id="logo">
                        <g id="logo-steasm">
                            <path d="M32.34375,13.515625 C32.34375,12.1267361 31.8489583,10.9418403 30.859375,9.9609375 C29.8697917,8.98003472 28.6805556,8.48958333 27.2916667,8.48958333 C25.9027778,8.48958333 24.7178819,8.984375 23.7369792,9.97395833 C22.7560764,10.9635417 22.265625,12.1440972 22.265625,13.515625 C22.265625,14.9045139 22.7560764,16.0894097 23.7369792,17.0703125 C24.7178819,18.0512153 25.9027778,18.5416667 27.2916667,18.5416667 C28.6805556,18.5416667 29.8697917,18.0512153 30.859375,17.0703125 C31.8489583,16.0894097 32.34375,14.9045139 32.34375,13.515625 Z M16.4583333,28.828125 C16.4583333,30.2690972 15.9548611,31.4887153 14.9479167,32.4869792 C13.9409722,33.4852431 12.7256944,33.984375 11.3020833,33.984375 C10.3298611,33.984375 9.43576389,33.7326389 8.61979167,33.2291667 C7.80381944,32.7256944 7.17881944,32.0572917 6.74479167,31.2239583 C7.64756944,31.5711806 8.49826389,31.9184028 9.296875,32.265625 C10.3385417,32.6822917 11.3802083,32.6692708 12.421875,32.2265625 C13.4635417,31.7838542 14.2013889,31.0329861 14.6354167,29.9739583 C15.0520833,28.9322917 15.0390625,27.890625 14.5963542,26.8489583 C14.1536458,25.8072917 13.4027778,25.078125 12.34375,24.6614583 L10.2083333,23.8020833 C10.5902778,23.7152778 10.9548611,23.671875 11.3020833,23.671875 C12.7256944,23.671875 13.9409722,24.1710069 14.9479167,25.1692708 C15.9548611,26.1675347 16.4583333,27.3871528 16.4583333,28.828125 Z M40,7.5 L40,32.5 C40,34.5659722 39.2664931,36.3324653 37.7994792,37.7994792 C36.3324653,39.2664931 34.5659722,40 32.5,40 L7.5,40 C5.43402778,40 3.66753472,39.2664931 2.20052083,37.7994792 C0.733506944,36.3324653 0,34.5659722 0,32.5 L0,28.515625 L4.47916667,30.3125 C4.82638889,31.9097222 5.63802083,33.2291667 6.9140625,34.2708333 C8.19010417,35.3125 9.65277778,35.8333333 11.3020833,35.8333333 C13.1076389,35.8333333 14.6788194,35.2256944 16.015625,34.0104167 C17.3524306,32.7951389 18.1076389,31.2934028 18.28125,29.5052083 L27.265625,22.9427083 C29.8697917,22.9427083 32.0876736,22.0269097 33.9192708,20.1953125 C35.7508681,18.3637153 36.6666667,16.1545139 36.6666667,13.5677083 C36.6666667,10.9635417 35.7508681,8.74565972 33.9192708,6.9140625 C32.0876736,5.08246528 29.8697917,4.16666667 27.265625,4.16666667 C24.6961806,4.16666667 22.5,5.07378472 20.6770833,6.88802083 C18.8541667,8.70225694 17.9253472,10.8940972 17.890625,13.4635417 L12.03125,21.8489583 C11.875,21.8315972 11.6319444,21.8229167 11.3020833,21.8229167 C10,21.8229167 8.81076389,22.1440972 7.734375,22.7864583 L0,19.6875 L0,7.5 C0,5.43402778 0.733506944,3.66753472 2.20052083,2.20052083 C3.66753472,0.733506944 5.43402778,0 7.5,0 L32.5,0 C34.5659722,0 36.3324653,0.733506944 37.7994792,2.20052083 C39.2664931,3.66753472 40,5.43402778 40,7.5 Z M33.5677083,13.5677083 C33.5677083,15.3038194 32.9513889,16.7838542 31.71875,18.0078125 C30.4861111,19.2317708 29.0017361,19.84375 27.265625,19.84375 C25.5295139,19.84375 24.0494792,19.2317708 22.8255208,18.0078125 C21.6015625,16.7838542 20.9895833,15.3038194 20.9895833,13.5677083 C20.9895833,11.8315972 21.6015625,10.3472222 22.8255208,9.11458333 C24.0494792,7.88194444 25.5295139,7.265625 27.265625,7.265625 C29.0190972,7.265625 30.5078125,7.87760417 31.7317708,9.1015625 C32.9557292,10.3255208 33.5677083,11.8142361 33.5677083,13.5677083 Z" id="Shape"></path>
                        </g>
                    </g>
                </g>
            </g>
        </g>
    </g>
</svg>