<?xml version="1.0" encoding="UTF-8"?>
<svg width="40px" height="42px" viewBox="0 0 40 42" version="1.1" xmlns="http://www.w3.org/2000/svg" xmlns:xlink="http://www.w3.org/1999/xlink">
    <!-- Generator: Sketch 50.2 (55047) - http://www.bohemiancoding.com/sketch -->
    <title>logo-google</title>
    <desc>Created with Sketch.</desc>
    <defs>
        <path d="M39.5348837,16.8488372 L20.4651163,16.8488372 L20.4651163,24.8052326 L31.4418605,24.8052326 C30.4186047,29.8598837 26.1395349,32.7616279 20.4651163,32.7616279 C13.7674419,32.7616279 8.37209302,27.3325581 8.37209302,20.5930233 C8.37209302,13.8534884 13.7674419,8.4244186 20.4651163,8.4244186 C23.3488372,8.4244186 25.9534884,9.45406977 28,11.1389535 L33.9534884,5.14825581 C30.3255814,1.96569767 25.6744186,0 20.4651163,0 C9.11627907,0 0,9.17325581 0,20.5930233 C0,32.0127907 9.11627907,41.1860465 20.4651163,41.1860465 C30.6976744,41.1860465 40,33.6976744 40,20.5930233 C40,19.3761628 39.8139535,18.0656977 39.5348837,16.8488372 Z" id="path-1"></path>
        <path d="M39.5348837,16.8488372 L20.4651163,16.8488372 L20.4651163,24.8052326 L31.4418605,24.8052326 C30.4186047,29.8598837 26.1395349,32.7616279 20.4651163,32.7616279 C13.7674419,32.7616279 8.37209302,27.3325581 8.37209302,20.5930233 C8.37209302,13.8534884 13.7674419,8.4244186 20.4651163,8.4244186 C23.3488372,8.4244186 25.9534884,9.45406977 28,11.1389535 L33.9534884,5.14825581 C30.3255814,1.96569767 25.6744186,0 20.4651163,0 C9.11627907,0 0,9.17325581 0,20.5930233 C0,32.0127907 9.11627907,41.1860465 20.4651163,41.1860465 C30.6976744,41.1860465 40,33.6976744 40,20.5930233 C40,19.3761628 39.8139535,18.0656977 39.5348837,16.8488372 Z" id="path-3"></path>
        <path d="M39.5348837,16.8488372 L20.4651163,16.8488372 L20.4651163,24.8052326 L31.4418605,24.8052326 C30.4186047,29.8598837 26.1395349,32.7616279 20.4651163,32.7616279 C13.7674419,32.7616279 8.37209302,27.3325581 8.37209302,20.5930233 C8.37209302,13.8534884 13.7674419,8.4244186 20.4651163,8.4244186 C23.3488372,8.4244186 25.9534884,9.45406977 28,11.1389535 L33.9534884,5.14825581 C30.3255814,1.96569767 25.6744186,0 20.4651163,0 C9.11627907,0 0,9.17325581 0,20.5930233 C0,32.0127907 9.11627907,41.1860465 20.4651163,41.1860465 C30.6976744,41.1860465 40,33.6976744 40,20.5930233 C40,19.3761628 39.8139535,18.0656977 39.5348837,16.8488372 Z" id="path-5"></path>
        <path d="M39.5348837,16.8488372 L20.4651163,16.8488372 L20.4651163,24.8052326 L31.4418605,24.8052326 C30.4186047,29.8598837 26.1395349,32.7616279 20.4651163,32.7616279 C13.7674419,32.7616279 8.37209302,27.3325581 8.37209302,20.5930233 C8.37209302,13.8534884 13.7674419,8.4244186 20.4651163,8.4244186 C23.3488372,8.4244186 25.9534884,9.45406977 28,11.1389535 L33.9534884,5.14825581 C30.3255814,1.96569767 25.6744186,0 20.4651163,0 C9.11627907,0 0,9.17325581 0,20.5930233 C0,32.0127907 9.11627907,41.1860465 20.4651163,41.1860465 C30.6976744,41.1860465 40,33.6976744 40,20.5930233 C40,19.3761628 39.8139535,18.0656977 39.5348837,16.8488372 Z" id="path-7"></path>
    </defs>
    <g id="Color" stroke="none" stroke-width="1" fill="none" fill-rule="evenodd">
        <g id="Desktop-HD-Copy" transform="translate(-277.000000, -502.000000)">
            <g id="Login" transform="translate(277.000000, 292.000000)">
                <g id="login-btn-copy-2" transform="translate(0.000000, 210.000000)">
                    <g id="logo">
                        <g id="logo-google">
                            <g id="Google__G__Logo">
                                <g id="Clipped">
                                    <mask id="mask-2" fill="white">
                                        <use xlink:href="#path-1"></use>
                                    </mask>
                                    <g id="a"></g>
                                    <polygon id="Shape" fill="#FBBC05" fill-rule="nonzero" mask="url(#mask-2)" points="-1.86046512 32.7616279 -1.86046512 8.4244186 13.9534884 20.5930233"></polygon>
                                </g>
                                <g id="Clipped">
                                    <mask id="mask-4" fill="white">
                                        <use xlink:href="#path-3"></use>
                                    </mask>
                                    <g id="a"></g>
                                    <polygon id="Shape" fill="#EA4335" fill-rule="nonzero" mask="url(#mask-4)" points="-1.86046512 8.4244186 13.9534884 20.5930233 20.4651163 14.8831395 42.7906977 11.2325581 42.7906977 -1.87209302 -1.86046512 -1.87209302"></polygon>
                                </g>
                                <g id="Clipped">
                                    <mask id="mask-6" fill="white">
                                        <use xlink:href="#path-5"></use>
                                    </mask>
                                    <g id="a"></g>
                                    <polygon id="Shape" fill="#34A853" fill-rule="nonzero" mask="url(#mask-6)" points="-1.86046512 32.7616279 26.0465116 11.2325581 33.3953488 12.1686047 42.7906977 -1.87209302 42.7906977 43.0581395 -1.86046512 43.0581395"></polygon>
                                </g>
                                <g id="Clipped">
                                    <mask id="mask-8" fill="white">
                                        <use xlink:href="#path-7"></use>
                                    </mask>
                                    <g id="a"></g>
                                    <polygon id="Shape" fill="#4285F4" fill-rule="nonzero" mask="url(#mask-8)" points="42.7906977 43.0581395 13.9534884 20.5930233 10.2325581 17.7848837 42.7906977 8.4244186"></polygon>
                                </g>
                            </g>
                        </g>
                    </g>
                </g>
            </g>
        </g>
    </g>
</svg>