<svg width="21px" height="28px" viewBox="0 0 21 28" version="1.1" xmlns="http://www.w3.org/2000/svg" xmlns:xlink="http://www.w3.org/1999/xlink">
    <g id="Color" stroke="none" stroke-width="1" fill="none" fill-rule="evenodd">
        <g id="Desktop-HD" transform="translate(-361.000000, -386.000000)" fill="#16C98E">
            <path d="M361.330429,413.289156 L379.488601,413.289156 C375.826449,411.309858 373.995373,409.887871 373.995373,409.023197 C373.995373,408.158522 373.995373,405.532549 373.995373,401.145278 C377.606662,400.441858 379.742917,398.971157 380.404139,396.733175 C381.395972,393.376202 381.930036,390.858473 379.488601,390.858473 C377.047166,390.858473 377.428641,395.207278 376.207923,396.275406 C375.394111,396.987491 374.656595,397.521555 373.995373,397.877598 L373.995373,389.942934 C373.842783,387.5015 372.749224,386.458803 370.714695,386.814846 C368.680165,387.170889 367.713764,388.518764 367.815491,390.858473 L368.883618,402.84069 C366.39132,403.1488 365.145171,402.207908 365.145171,400.018015 C365.145171,397.828122 365.145171,396.580586 365.145171,396.275406 C364.890855,395.359868 364.331359,394.902099 363.466685,394.902099 C362.60201,394.902099 361.889925,395.359868 361.330429,396.275406 L361.330429,401.921225 C361.330429,403.447121 362.042514,404.540681 363.466685,405.201903 C364.890855,405.863125 365.831825,406.244599 366.289594,406.346325 L368.883618,406.346325 L368.883618,409.321824 C368.425849,409.88132 367.1797,410.567973 365.145171,411.381785 C363.110642,412.195597 361.839061,412.831387 361.330429,413.289156 Z" id="Desert_Main"></path>
        </g>
    </g>
</svg>