<svg width="33px" height="29px" viewBox="0 0 33 29" version="1.1" xmlns="http://www.w3.org/2000/svg" xmlns:xlink="http://www.w3.org/1999/xlink">
    <g id="Color" stroke="none" stroke-width="1" fill="none" fill-rule="evenodd">
        <g id="Desktop-HD" transform="translate(-407.000000, -385.000000)" fill="#16C98E">
            <path d="M423.895868,407.638029 L424.115191,412.967572 L421.936416,412.967572 L421.936416,408.117282 L420.676749,408.785453 L421,409.010166 L420.25311,409.010166 L417.801863,410.310393 L419.218042,412.324839 L414.441663,410.162521 L414.625134,413.967572 L412.802522,413.967572 L412.802522,410.504686 L408.781958,412.324839 L411.112211,409.010166 L407,409.010166 L412.665713,405.071555 L408.781958,405.071555 L412.254492,402.224836 L409.375944,402.029855 L412.254492,399.339121 L409.695783,399.339121 L413.96355,394.019359 L413.96355,394.013842 L413.96578,394.016579 L413.97908,394 L413.979199,394.033042 L418.304217,399.339121 L415.745508,399.339121 L418.624056,402.029855 L415.745508,402.224836 L417.698591,403.825937 L421.772873,400.507369 L417.130178,400.507369 L421.281293,396.520113 L417.840237,396.247014 L421.281293,392.478238 L418.222577,392.478238 L423.324324,385.027116 L423.324324,385.019388 L423.326991,385.023221 L423.34289,385 L423.343032,385.04628 L428.513219,392.478238 L425.454502,392.478238 L428.895558,396.247014 L425.454502,396.520113 L429.274819,400.189628 L431.254492,398.339121 L428.695783,398.339121 L432.96355,393.019359 L432.96355,393.013842 L432.96578,393.016579 L432.97908,393 L432.979199,393.033042 L437.304217,398.339121 L434.745508,398.339121 L437.624056,401.029855 L434.745508,401.224836 L438.218042,404.071555 L434.334287,404.071555 L440,408.010166 L435.887789,408.010166 L438.218042,411.324839 L433.441663,409.162521 L433.625134,412.967572 L431.802522,412.967572 L431.802522,409.504686 L429.526618,410.535012 L429.605617,410.666678 L429.435318,410.576345 L427.781958,411.324839 L428.614312,410.140855 L423.895868,407.638029 Z M417.554805,409.958965 L418.124085,409.010166 L416.887789,409.010166 L417.554805,409.958965 Z M418.970563,407.59937 L419.915795,406.023983 L416.70436,406.023983 L418.970563,407.59937 Z M415.78481,405.384743 L416.169318,405.071555 L415.334287,405.071555 L415.78481,405.384743 Z M428.9349,400.507369 L424.962922,400.507369 L428.557849,403.435494 L431.254492,401.224836 L428.375944,401.029855 L428.9349,400.507369 Z M429.338755,404.071555 L430.410253,404.944308 L431.665713,404.071555 L429.338755,404.071555 Z M428.857135,406.023983 L426.82,406.023983 L427.419597,407.023311 L428.857135,406.023983 Z M428.01171,408.010166 L428.978932,409.622202 L430.112211,408.010166 L428.01171,408.010166 Z" id="Erangel_Main"></path>
        </g>
    </g>
</svg>