<svg width="38px" height="30px" viewBox="0 0 38 30" version="1.1" xmlns="http://www.w3.org/2000/svg" xmlns:xlink="http://www.w3.org/1999/xlink">
    <g id="Color" stroke="none" stroke-width="1" fill="none" fill-rule="evenodd">
        <g id="Desktop-HD" transform="translate(-300.000000, -385.000000)" fill="#16C98E">
            <path d="M323.674799,395.025347 C325.685668,393.519765 327.255079,393.218156 328.383034,394.12052 C329.651118,395.134988 330.158352,396.808859 329.904735,399.142133 C332.795967,397.924772 334.79954,398.153028 335.915454,399.826899 C337.031368,401.500769 337.513239,402.667407 337.361069,403.32681 C335.41163,401.107532 334.012211,400.128651 333.162813,400.390167 C332.313415,400.651682 331.962878,401.173623 332.111201,401.95599 C332.669158,404.524146 332.669158,406.206229 332.111201,407.002239 C331.553244,407.798248 331.096734,408.424508 330.741671,408.881019 C331.111755,406.035778 331.139949,404.297188 330.826255,403.665248 C330.617368,403.244445 330.310195,402.979462 329.904735,402.8703 C327.926524,402.337705 326.273549,403.151294 325.083783,405.076766 C324.290606,406.360415 323.918494,409.412395 323.967447,414.232707 C322.7095,414.26061 321.67747,414.269816 320.871357,414.260326 L317.704221,414.260326 C319.016833,408.484833 319.016833,404.612628 317.704221,402.64371 C316.391609,400.674792 315.243074,398.935582 314.258615,397.426078 C313.077264,398.148014 312.486589,399.887225 312.486589,402.64371 C312.486589,405.400195 312.486589,407.926973 312.486589,410.224044 C310.977085,408.058234 310.222333,405.531457 310.222333,402.64371 C310.222333,399.755964 310.222333,398.771505 310.222333,399.690333 C309.434766,399.493442 308.745645,400.149748 308.154969,401.659251 C307.564294,403.168755 307.268956,403.726615 307.268956,403.332832 C307.106024,401.002935 307.504061,399.390588 308.463065,398.495791 C309.42207,397.600994 310.224905,397.059547 310.871571,396.871449 C310.610183,395.993932 309.891365,395.79789 308.715118,396.283326 C307.538871,396.768761 305.908281,397.90443 303.82335,399.690333 C303.757719,398.115199 304.315579,396.868218 305.49693,395.949389 C306.678281,395.030561 307.564294,394.505516 308.154969,394.374255 C305.267223,394.374255 303.26549,395.391529 302.14977,397.426078 C301.034049,399.460626 300.377743,400.674792 300.180852,401.068576 C301.26965,395.166823 303.323637,391.952174 306.342811,391.424629 C309.361985,390.897084 311.705248,391.092725 313.372602,392.011554 C313.203349,388.706452 314.31907,386.639088 316.719762,385.809462 C319.120455,384.979836 321.089372,384.979836 322.626516,385.809462 C320.173683,386.157151 318.374961,387.058642 317.230349,388.513934 C316.085737,389.969226 315.71865,391.331991 316.129087,392.602229 C317.575878,390.625347 319.118197,389.969041 320.756044,390.633311 C322.340264,391.275831 323.313182,392.739843 323.674799,395.025347 Z M323.545143,395.123623 C321.12741,393.137698 319.180436,392.658202 317.704221,393.685134 C316.194717,394.735223 315.866564,395.489975 316.719762,395.949389 C319.870031,398.705874 321.445165,400.937315 321.445165,402.64371 C321.445165,403.426635 321.434685,404.665491 321.413724,406.360281 C322.563868,403.992755 323.787221,402.524658 325.083783,401.95599 C326.493764,401.337577 327.272965,400.954161 327.421384,400.805742 C326.914243,399.696669 326.397858,399.142133 325.872228,399.142133 C325.346598,399.142133 324.179961,399.142133 322.372316,399.142133 C323.165587,397.721879 324.205416,397.011752 325.491803,397.011752 C326.77819,397.011752 327.589764,397.417539 327.926524,398.229113 C327.825077,396.504518 327.140312,395.642221 325.872228,395.642221 C324.604144,395.642221 323.615038,395.642221 322.904911,395.642221 C323.122991,395.456622 323.336402,395.283755 323.545143,395.123623 Z" id="Savage_Main"></path>
        </g>
    </g>
</svg>