<?xml version="1.0" encoding="UTF-8"?>
<svg width="29px" height="46px" viewBox="0 0 29 46" version="1.1" xmlns="http://www.w3.org/2000/svg" xmlns:xlink="http://www.w3.org/1999/xlink">
    <!-- Generator: Sketch 50.2 (55047) - http://www.bohemiancoding.com/sketch -->
    <title>hyped-logo</title>
    <desc>Created with Sketch.</desc>
    <defs></defs>
    <g id="Dashboard-Player" stroke="none" stroke-width="1" fill="none" fill-rule="evenodd">
        <g id="Settings" transform="translate(-211.000000, -46.000000)" fill="#FFFFFF">
            <g id="left-menu" transform="translate(-3.000000, 0.000000)">
                <path d="M232.082941,46 C236.760315,48.1433303 239.038708,51.4716939 238.918121,55.985091 C238.846524,58.6648684 237.92369,60.8701054 235.972354,63.4270281 C235.47278,64.0816429 234.835392,65.253059 234.06019,66.9412762 C234.542538,66.0971676 235.4211,65.0721785 236.695876,63.8663091 C237.970652,62.6604397 239.908657,62.2383854 242.509889,62.6001462 C241.320037,63.2485545 240.381182,64.4458106 239.693323,66.1919145 C238.661534,68.8110702 240.907806,74.8741744 240.623565,79.1636243 C240.339324,83.4530742 238.252325,92.7293049 226.130314,91.9542784 C214.008304,91.179252 212.240852,78.4616578 215.336218,72.9058729 C217.004459,69.9115929 223.273053,64.0166169 228.035155,60.0481991 C231.626619,57.0553125 232.952169,53.461852 233.194098,52.6669419 C233.564483,51.4499605 233.194098,49.2276465 232.082941,46 Z M222.530486,77.6861784 C222.82587,77.6861784 223.107249,77.6861784 223.374621,77.6861784 C223.697398,77.6861784 225.146887,79.3218913 225.739967,79.59355 C226.333048,79.8652088 227.462914,80.1886654 228.257331,80.1886654 C230.314503,80.1886654 232.516371,77.4214923 232.660745,76.7236835 C232.710985,76.4808588 232.80764,76.1680479 232.95071,75.7852508 C233.344766,75.7852508 233.649151,75.7852508 233.863864,75.7852508 C234.313028,75.7852508 234.625839,75.7852508 234.802297,75.7852508 C233.165905,75.2194932 232.078989,74.8518115 231.541548,74.6822058 C231.077368,74.53572 230.610903,74.4098696 230.390802,74.4750562 C229.936454,74.6096191 227.511397,76.1643295 225.177347,76.7236835 C224.227464,76.9513224 223.708119,77.2296463 223.260381,77.4184767 C223.069903,77.4988091 222.826605,77.588043 222.530486,77.6861784 Z M214.923404,76.1891172 C215.380188,76.2165242 215.645123,76.3033133 215.718209,76.4494843 C215.827837,76.6687409 216.581531,79.053156 217.691518,79.053156 C218.801504,79.053156 219.896058,77.6211366 220.048526,77.6211366 C220.150171,77.6211366 220.321944,77.6211366 220.563844,77.6211366 C219.134004,77.2753374 218.255214,76.9502177 217.927472,76.6457775 C217.43586,76.1891172 217.31816,75.5642308 216.518184,75.5642308 C215.984867,75.5642308 215.453274,75.7725262 214.923404,76.1891172 Z" id="hyped-logo"></path>
            </g>
        </g>
    </g>
</svg>