<?xml version="1.0" encoding="UTF-8"?>
<svg width="430px" height="300px" viewBox="0 0 430 300" version="1.1" xmlns="http://www.w3.org/2000/svg" xmlns:xlink="http://www.w3.org/1999/xlink">
    <!-- Generator: Sketch 50.2 (55047) - http://www.bohemiancoding.com/sketch -->
    <title>pubg-logo</title>
    <desc>Created with Sketch.</desc>
    <defs></defs>
    <g id="Color" stroke="none" stroke-width="1" fill="none" fill-rule="evenodd">
        <g id="Desktop-HD" transform="translate(-756.000000, -63.000000)">
            <g id="pubg-logo" transform="translate(756.000000, 63.000000)">
                <g>
                    <rect id="BG" fill="#211F1D" x="48" y="38" width="333" height="224"></rect>
                    <rect id="Rectangle-10" fill="#FFD700" x="416" y="66" width="14" height="25"></rect>
                    <rect id="Rectangle-10-Copy" fill="#FFD700" x="416" y="208" width="14" height="25"></rect>
                    <rect id="Rectangle-6" fill="#FFFF00" x="25" y="13" width="14" height="261"></rect>
                    <rect id="Rectangle-6-Copy" fill="#FFD700" x="13" y="13" width="14" height="273"></rect>
                    <rect id="Rectangle-6-Copy-2" fill="#FFD700" x="38" y="13" width="14" height="249"></rect>
                    <rect id="Rectangle-7" fill="#FFFF00" x="27" y="13" width="378" height="13"></rect>
                    <rect id="Rectangle-7-Copy" fill="#FFD700" x="27" y="0" width="378" height="13"></rect>
                    <rect id="Rectangle-7-Copy-2" fill="#FFD700" x="27" y="26" width="378" height="13"></rect>
                    <rect id="Rectangle-8" fill="#FFFF00" x="391" y="25" width="14" height="249"></rect>
                    <rect id="Rectangle-8-Copy" fill="#FFD700" x="405" y="13" width="14" height="273"></rect>
                    <rect id="Rectangle-8-Copy-2" fill="#FFD700" x="377" y="13" width="14" height="249"></rect>
                    <rect id="Rectangle-9" fill="#FFFF00" x="405" y="66" width="14" height="14"></rect>
                    <rect id="Rectangle-9-Copy-4" fill="#FFFF00" x="0" y="66" width="27" height="14"></rect>
                    <rect id="Rectangle-9-Copy" fill="#FFFF00" x="405" y="208" width="14" height="14"></rect>
                    <rect id="Rectangle-9-Copy-3" fill="#FFFF00" x="0" y="208" width="27" height="28"></rect>
                    <rect id="Rectangle-7-Copy-3" fill="#FF9024" x="39" y="261" width="352" height="13"></rect>
                    <rect id="Rectangle-7-Copy-4" fill="#D2691E" x="27" y="274" width="378" height="13"></rect>
                    <rect id="Rectangle-7-Copy-5" fill="#8B4513" x="27" y="287" width="378" height="13"></rect>
                    <g id="P" transform="translate(65.000000, 66.000000)">
                        <rect id="Rectangle-11" fill="#FFFF00" x="12" y="0" width="41" height="13"></rect>
                        <rect id="Rectangle-11-Copy" fill="#FFFF00" x="0" y="90" width="39" height="14"></rect>
                        <rect id="Rectangle-13" fill="#FFD700" x="26" y="78" width="13" height="13"></rect>
                        <rect id="Rectangle-13-Copy-3" fill="#FFD700" x="13" y="104" width="13" height="65"></rect>
                        <rect id="Rectangle-13-Copy-19" fill="#FFFF00" x="0" y="104" width="13" height="65"></rect>
                        <rect id="Rectangle-13-Copy-2" fill="#FFD700" x="39" y="91" width="26" height="13"></rect>
                        <rect id="Rectangle-13-Copy" fill="#FFD700" x="52" y="0" width="13" height="13"></rect>
                        <rect id="Rectangle-13-Copy-5" fill="#FFD700" x="78" y="0" width="13" height="13"></rect>
                        <rect id="Rectangle-13-Copy-16" fill="#FFFF00" x="260" y="143" width="13" height="13"></rect>
                        <rect id="Rectangle-13-Copy-17" fill="#FFD700" x="247" y="104" width="14" height="52"></rect>
                        <rect id="Rectangle-13-Copy-18" fill="#FFFF00" x="247" y="13" width="14" height="91"></rect>
                        <rect id="Rectangle-13-Copy-6" fill="#FFD700" x="117" y="0" width="13" height="13"></rect>
                        <rect id="Rectangle-13-Copy-4" fill="#FFD700" x="0" y="0" width="13" height="13"></rect>
                        <rect id="Rectangle-12" fill="#FFFF00" x="39" y="12" width="26" height="79"></rect>
                        <rect id="Rectangle-12-Copy" fill="#FFFF00" x="0" y="12" width="26" height="79"></rect>
                    </g>
                    <rect id="Rectangle-11-Copy-2" fill="#FFFF00" x="143" y="78" width="13" height="144"></rect>
                    <rect id="Rectangle-11-Copy-4" fill="#FFD700" x="155" y="66" width="14" height="144"></rect>
                    <rect id="Rectangle-11-Copy-5" fill="#FFD700" x="194" y="66" width="14" height="156"></rect>
                    <rect id="Rectangle-11-Copy-3" fill="#FFFF00" x="182" y="78" width="13" height="144"></rect>
                    <rect id="Rectangle-11-Copy-7" fill="#FFFF00" x="261" y="78" width="13" height="65"></rect>
                    <rect id="Rectangle-11-Copy-8" fill="#FFFF00" x="261" y="153" width="13" height="65"></rect>
                    <rect id="Rectangle-11-Copy-6" fill="#FFFF00" x="222" y="78" width="13" height="144"></rect>
                    <rect id="Rectangle-14" fill="#FFFF00" x="155" y="209" width="32" height="13"></rect>
                    <rect id="Rectangle-14-Copy" fill="#FFFF00" x="156" y="221" width="39" height="14"></rect>
                    <rect id="Rectangle-14-Copy-2" fill="#FFFF00" x="235" y="209" width="39" height="14"></rect>
                    <rect id="Rectangle-14-Copy-3" fill="#FFFF00" x="235" y="66" width="39" height="14"></rect>
                    <rect id="Rectangle-14-Copy-5" fill="#FFFF00" x="312" y="66" width="39" height="14"></rect>
                    <rect id="Rectangle-14-Copy-8" fill="#FFFF00" x="339" y="78" width="26" height="14"></rect>
                    <rect id="Rectangle-14-Copy-9" fill="#FFD700" x="338" y="130" width="26" height="14"></rect>
                    <rect id="Rectangle-14-Copy-11" fill="#FFD700" x="339" y="91" width="26" height="14"></rect>
                    <rect id="Rectangle-14-Copy-10" fill="#FFD700" x="326" y="143" width="26" height="14"></rect>
                    <rect id="Rectangle-14-Copy-12" fill="#FFD700" x="326" y="78" width="14" height="14"></rect>
                    <rect id="Rectangle-14-Copy-13" fill="#FFD700" x="351" y="66" width="14" height="12"></rect>
                    <rect id="Rectangle-14-Copy-7" fill="#FFFF00" x="338" y="143" width="26" height="78"></rect>
                    <rect id="Rectangle-14-Copy-6" fill="#FFD700" x="312" y="221" width="39" height="14"></rect>
                    <rect id="Rectangle-14-Copy-4" fill="#FFFF00" x="235" y="143" width="39" height="14"></rect>
                    <rect id="Rectangle-13-Copy-7" fill="#FFD700" x="222" y="66" width="13" height="13"></rect>
                    <rect id="Rectangle-13-Copy-8" fill="#FFD700" x="235" y="79" width="26" height="13"></rect>
                    <rect id="Rectangle-13-Copy-12" fill="#FFD700" x="235" y="130" width="26" height="13"></rect>
                    <rect id="Rectangle-13-Copy-9" fill="#FFD700" x="274" y="79" width="12" height="64"></rect>
                    <rect id="Rectangle-13-Copy-15" fill="#FFD700" x="300" y="79" width="14" height="142"></rect>
                    <rect id="Rectangle-13-Copy-11" fill="#FFD700" x="235" y="79" width="13" height="64"></rect>
                    <rect id="Rectangle-13-Copy-13" fill="#FFD700" x="235" y="157" width="13" height="54"></rect>
                    <rect id="Rectangle-13-Copy-14" fill="#FFD700" x="274" y="157" width="12" height="65"></rect>
                    <rect id="Rectangle-13-Copy-10" fill="#FFD700" x="235" y="222" width="39" height="13"></rect>
                </g>
            </g>
        </g>
    </g>
</svg>