<?xml version="1.0" encoding="UTF-8"?>
<svg width="1440px" height="1024px" viewBox="0 0 1440 1024" version="1.1" xmlns="http://www.w3.org/2000/svg" xmlns:xlink="http://www.w3.org/1999/xlink">
    <!-- Generator: Sketch 50.2 (55047) - http://www.bohemiancoding.com/sketch -->
    <title>right bg</title>
    <desc>Created with Sketch.</desc>
    <defs></defs>
    <g id="Color" stroke="none" stroke-width="1" fill="none" fill-rule="evenodd">
        <g id="Desktop-HD-Copy" fill="#20222A">
            <g id="Right" transform="translate(-1.000000, 0.000000)">
                <path d="M0,0 C27.726895,25.862938 41.5903425,59.0119347 41.5903425,99.4469899 C41.5903425,160.099573 5.77181948e-16,162.978174 0,225.363687 C0,287.749201 41.5903425,297.570097 41.5903425,377.28492 C41.5903425,456.999743 0,456.627302 0,527.67747 C0,598.727639 41.5903425,595.19881 41.5903425,652.385531 C41.5903425,709.572252 2.27289362e-16,733.532442 0,809.781403 C0,886.030364 41.5903425,900.862632 41.5903425,949.384698 C41.5903425,981.732742 27.726895,1006.45123 0,1023.54017 L1441,1023.54017 L1441,0 L0,0 Z" id="right-bg"></path>
            </g>
        </g>
    </g>
</svg>