<?xml version="1.0" encoding="UTF-8"?>
<svg width="97px" height="40px" viewBox="0 0 97 40" version="1.1" xmlns="http://www.w3.org/2000/svg" xmlns:xlink="http://www.w3.org/1999/xlink">
    <g id="Color" stroke="none" stroke-width="1" fill="none" fill-rule="evenodd">
        <g id="Desktop-HD" transform="translate(-284.000000, -132.000000)" stroke="#FFF" stroke-width="3.55418719">
            <g id="pubg-logo-user" transform="translate(284.000000, 132.000000)">
                <path d="M94.4950203,10.0384986 L94.4950203,8.67150353 L92.1592418,8.67150353 L92.1592418,4.37438424 C92.1592418,2.93994022 90.9963952,1.7770936 89.5619512,1.7770936 L6.28817734,1.7770936 C4.85373333,1.7770936 3.6908867,2.93994022 3.6908867,4.37438424 L3.6908867,8.88546798 L1.7770936,8.88546798 L1.7770936,10.2524631 L3.6908867,10.2524631 L3.6908867,29.3903941 L1.7770936,29.3903941 L1.7770936,30.7573892 L3.6908867,30.7573892 L3.6908867,35.2684729 C3.6908867,36.7029169 4.85373333,37.8657635 6.28817734,37.8657635 L89.5619512,37.8657635 C90.9963952,37.8657635 92.1592418,36.7029169 92.1592418,35.2684729 L92.1592418,30.7217284 L94.4950203,30.7217284 L94.4950203,29.3547333 L92.1592418,29.3547333 L92.1592418,10.0384986 L93.9363354,10.0384986 L94.4950203,10.0384986 Z" id="Combined-Shape"></path>
            </g>
        </g>
    </g>
</svg>